Coordinates
version=1
nRows=17
nColumns=36
inDegrees=yes

Units are S.I. units (second, meters, Newtons, ...)
If the header above contains a line with 'inDegrees', this indicates whether rotational values are in degrees (yes) or radians (no).

endheader
time	pelvis_tilt	pelvis_list	pelvis_rotation	pelvis_tx	pelvis_ty	pelvis_tz	hip_flexion_r	hip_adduction_r	hip_rotation_r	knee_angle_r	knee_angle_r_beta	ankle_angle_r	subtalar_angle_r	mtp_angle_r	hip_flexion_l	hip_adduction_l	hip_rotation_l	knee_angle_l	knee_angle_l_beta	ankle_angle_l	subtalar_angle_l	mtp_angle_l	lumbar_extension	lumbar_bending	lumbar_rotation	arm_flex_r	arm_add_r	arm_rot_r	elbow_flex_r	pro_sup_r	arm_flex_l	arm_add_l	arm_rot_l	elbow_flex_l	pro_sup_l
      0.00000000	     -3.73623848	     -3.84638660	     -3.33386334	     -0.95541280	      1.24035346	     -0.08371912	      6.99971020	      5.22758494	      7.80718440	      9.87236619	      0.17230529	      7.82863112	    -13.77562381	     -5.92155955	      8.63953332	     -3.95272693	      2.92009886	     13.80344174	      0.24091551	     11.28683158	    -14.01319544	     -5.92155955	    -21.17283587	      2.20209590	     -2.05853302	     10.48684796	     -4.83571619	     13.07280576	     24.49834471	     78.48155002	      8.14258666	     -7.24253756	     12.96245287	     22.05189366	     68.13184339
      0.00416670	     -7.18845954	     -3.02013960	     -3.73588172	     -0.95572035	      1.24077446	     -0.08396202	     11.60153966	      4.54819653	      7.85638114	     11.73476713	      0.20481032	     11.25901637	     -9.46657675	     -6.64150870	     13.14429243	     -2.76553276	      3.64346110	     14.89912085	      0.26003871	     11.07519264	    -12.56690155	     -6.64150870	    -17.47279694	      1.83425592	     -2.37589638	      9.48609950	     -3.23831386	      5.08480292	     23.47475035	     83.28251525	      7.39720257	     -5.29414040	      2.99559872	     21.62164147	     73.00929602
      0.00833330	     -6.50491897	     -1.95099648	     -4.35440883	     -0.95460846	      1.24182199	     -0.08260350	      9.81813238	      3.26487513	      7.74677708	      9.73483978	      0.16990501	     11.33488723	     -7.98452512	     -6.67539267	     11.06753615	     -1.73625476	      3.76299575	     12.63955056	      0.22060177	      9.33440382	    -13.87010495	     -6.67539267	    -18.25436592	      0.18454515	     -2.25788593	      9.33730003	     -2.46011383	      2.96435589	     23.17318681	     82.30493392	      7.64224670	     -5.58669556	      1.93874530	     22.24200194	     72.59011288
      0.01250000	     -4.82413133	     -1.56599787	     -4.73707911	     -0.96163831	      1.24545389	     -0.08674182	      7.66932675	      2.45839534	      7.63507913	      8.46620382	      0.14776313	     11.37933157	     -6.61103630	     -6.73043769	      8.44283681	     -0.94990713	      4.46818840	     10.83539499	      0.18911332	      8.12180430	    -15.38564658	     -6.73043769	    -21.24932960	     -0.43734910	     -2.01326048	      9.86166157	     -2.55448470	      1.68289221	     24.49136870	     81.85377632	      8.46845382	     -5.95121427	      1.79477700	     23.55100955	     72.87519976
      0.01666670	     -2.94995260	     -1.56721116	     -4.94620871	     -0.95459584	      1.24450494	     -0.08181507	      5.04558784	      2.30878315	      7.88526400	      7.46733209	      0.13032953	     11.19326161	     -6.10784921	     -6.80080464	      5.40147676	     -0.78202629	      4.78034797	      9.07371141	      0.15836614	      7.45035669	    -15.95206303	     -6.80080464	    -23.71563865	     -0.71638126	     -1.67450152	     10.02448145	     -2.54577057	      1.20993916	     24.88079653	     81.76132816	      8.92553687	     -6.28872524	      2.47814954	     24.15673533	     73.72718604
      0.02083330	     -2.16347839	     -1.49005551	     -5.16133847	     -0.95546340	      1.24911252	     -0.09102381	      4.18690085	      1.87920105	      7.39358216	      7.61450440	      0.13289817	     11.47908458	     -5.08371392	     -6.83568078	      4.09469409	     -0.36028595	      4.91264699	      8.27603157	      0.14444400	      7.03159919	    -16.52006862	     -6.83568078	    -24.99483334	     -0.64974961	     -1.42394162	     10.33723869	     -3.06675274	      1.76741737	     25.78718684	     81.76235933	      9.15207276	     -6.10093563	      3.17973572	     24.69602361	     73.97552514
      0.02500000	     -2.07076916	     -1.42533807	     -5.41785100	     -0.96151984	      1.25334195	     -0.08585154	      4.53584894	      1.82171499	      7.37562175	      8.17485182	      0.14267808	     11.64422074	     -5.01176330	     -6.84263906	      4.22437494	     -0.16172719	      4.92763318	      8.47312851	      0.14788399	      7.05405176	    -16.85203337	     -6.84263906	    -25.68097940	     -0.82805412	     -1.38997000	     10.83742168	     -3.11601803	      1.90250973	     25.90850985	     81.75736820	      9.62175482	     -6.13476536	      3.30543450	     24.90876352	     74.02781284
      0.02916670	     -1.91919476	     -1.47755311	     -5.49784469	     -0.95600802	      1.25244329	     -0.09071822	      4.41218130	      1.70496053	      6.93637605	      8.38228898	      0.14629854	     11.83665826	     -4.10896719	     -6.87369145	      4.28834210	     -0.04797823	      5.03333794	      8.96364914	      0.15644519	      6.79636285	    -17.58697606	     -6.87369145	    -26.01855691	     -0.63420275	     -1.53606925	     10.90109126	     -3.36700770	      2.53438986	     25.86556569	     81.73126977	      9.61946141	     -5.95218977	      3.80357952	     25.13502878	     74.24408975
      0.03333330	     -2.07626002	     -1.50434544	     -5.66780549	     -0.96208799	      1.24501442	     -0.08568460	      4.58713542	      1.78496480	      7.06853631	      8.20660897	      0.14323235	     11.94003654	     -4.05881219	     -6.87645605	      4.53580387	     -0.08234582	      5.03026744	      9.01029832	      0.15725937	      6.96875943	    -17.67586903	     -6.87645605	    -26.13778527	     -0.66576305	     -1.49889635	     11.14157769	     -3.27115670	      2.60090933	     26.02085376	     81.70901691	      9.98070659	     -6.08069908	      3.77620612	     25.31371975	     74.22862495
      0.03750000	     -2.10278225	     -1.51664446	     -5.69841744	     -0.95653431	      1.24819457	     -0.09051341	      4.56091200	      1.73770698	      7.07251591	      8.21541222	      0.14338599	     11.93967214	     -4.05956423	     -6.87650637	      4.52593802	     -0.09191484	      5.03340977	      9.02409078	      0.15750010	      6.97212298	    -17.67778340	     -6.87650637	    -26.13682929	     -0.66870322	     -1.49590031	     11.14028322	     -3.26655748	      2.60388640	     26.02222784	     81.70928792	      9.98278222	     -6.08366459	      3.77541009	     25.31714254	     74.22871809
      0.04166670	     -2.01056787	     -1.67353124	     -5.94185368	     -0.96253263	      1.24878425	     -0.08594334	      4.47109846	      1.89545136	      7.12901665	      8.05638047	      0.14061037	     12.03468067	     -4.08275756	     -6.88077712	      4.94019721	     -0.24408796	      4.88175589	      9.87773661	      0.17239903	      7.56175064	    -18.11060750	     -6.88077712	    -26.45400803	     -0.57291387	     -1.22823040	     11.27393007	     -3.37609812	      2.87274178	     26.30311497	     81.75908082	     10.14782775	     -6.07498665	      3.70880376	     25.69814729	     74.24025496
      0.04583330	     -2.11720913	     -1.78357421	     -5.80899298	     -0.95665626	      1.25223521	     -0.09092831	      4.48639684	      1.92255691	      6.92267536	      7.95958098	      0.13892090	     11.60652718	     -4.44364659	     -6.91060139	      5.35348391	     -0.36752679	      4.91247903	     10.53146648	      0.18380877	      8.00400951	    -17.51366044	     -6.91060139	    -26.37197020	     -0.25130431	     -1.50394025	     11.14127720	     -3.73245673	      4.10330390	     26.95461607	     81.96450032	      9.76240864	     -5.93639089	      3.00450301	     26.36653266	     74.31077020
      0.05000000	     -1.97876068	     -1.85872182	     -5.95610294	     -0.95000210	      1.25203475	     -0.08619577	      4.20632058	      1.99125459	      6.78893102	      8.01133309	      0.13982414	     11.50686227	     -4.46436130	     -6.91161675	      5.10617066	     -0.50741284	      4.93153546	     10.72216398	      0.18713706	      7.99495622	    -17.50224253	     -6.91161675	    -26.32161708	     -0.31390308	     -1.45648246	     10.82500076	     -3.61788031	      4.13919345	     26.86649146	     81.96696875	      9.42645713	     -5.93392007	      2.98026243	     26.27254138	     74.31319105
      0.05416670	     -1.01165613	     -2.08000276	     -5.91110133	     -0.95023383	      1.25295879	     -0.08665144	      2.71800523	      2.12821127	      6.90287193	      7.56698440	      0.13206879	     11.09314754	     -4.88815783	     -6.94909098	      3.75761779	     -0.68646964	      4.97470345	     10.58397590	      0.18472523	      8.19703022	    -17.52192005	     -6.94909098	    -26.95652149	     -0.15330089	     -1.60166566	     10.80630625	     -3.46104830	      4.22735339	     25.80572498	     80.68486960	      9.42734275	     -5.79827289	      2.43026034	     25.52380756	     73.33760944
      0.05833330	     -0.32900122	     -2.13730651	     -5.84449995	     -0.95660947	      1.25398381	     -0.09114160	      1.94425371	      2.09227351	      6.98815794	      7.48564117	      0.13064909	     10.87109629	     -5.27587572	     -6.97391918	      2.93107826	     -0.68472578	      4.80777942	     10.46824175	      0.18270529	      8.34369154	    -17.29369421	     -6.97391918	    -27.78717946	      0.00166958	     -1.76850313	     10.59148574	     -3.68682407	      4.50676022	     26.61138560	     80.89330088	      9.17567008	     -5.79695930	      1.88257045	     26.55886517	     73.70088082
      0.06250000	     -0.09444229	     -2.12190580	     -5.69495965	     -0.95061847	      1.25692880	     -0.08676262	      1.78266056	      2.14739575	      6.97055118	      7.72601576	      0.13484441	     10.75510041	     -5.31665866	     -6.97529332	      2.62386104	     -0.76000589	      4.83551547	     10.56483800	      0.18439121	      8.28392365	    -17.29349763	     -6.97529332	    -27.72579545	     -0.01206927	     -1.83763215	     10.30159568	     -3.55948680	      4.52524257	     26.51076265	     80.90113668	      9.03256109	     -5.83118121	      1.83842710	     26.47226984	     73.71864280
      0.06666670	     -0.03910379	     -2.05531257	     -5.78562112	     -0.95712414	      1.25328359	     -0.09116624	      2.39273429	      2.08327941	      7.04647916	      8.89620727	      0.15526811	     11.06915939	     -5.72389366	     -7.01845643	      2.58517076	     -0.64010033	      4.76981033	     10.50374903	      0.18332500	      8.17242628	    -17.61934499	     -7.01845643	    -27.88110786	      0.02183487	     -2.01084910	     10.61311147	     -3.57930264	      4.78237539	     26.36116227	     80.97824743	      9.08696795	     -5.68221221	      0.64553953	     26.43979156	     74.82125567
